<?xml version="1.0" encoding="UTF-8" standalone="no"?>
<!-- Created with Inkscape (http://www.inkscape.org/) -->

<svg
   width="28mm"
   height="28mm"
   viewBox="0 0 28 28"
   version="1.1"
   id="svg917"
   xmlns="http://www.w3.org/2000/svg"
   xmlns:svg="http://www.w3.org/2000/svg">
  <defs
     id="defs914" />
  <g
     id="layer1"
     transform="translate(-25.215841,-40.265166)">
    <g
       id="g26775"
       transform="translate(0.16536458,0.5953125)">
      <g
         id="g18367">
        <path
           style="fill:#000000;fill-opacity:1;stroke:#000000;stroke-width:0.1;stroke-linecap:butt;stroke-linejoin:miter;stroke-miterlimit:4;stroke-dasharray:none;stroke-opacity:1"
           d="m 36.066418,40.387218 c -1.96096,0.789899 -4.035708,1.55731 -5.779895,2.359549 -0.418595,0.199672 -1.347651,1.220483 -1.583144,1.53381 -0.616788,0.66045 -1.003691,1.101062 -1.876886,2.706258 -0.591388,1.074102 -0.920014,2.316373 -1.24174,3.563059 -0.357411,1.354711 -0.385736,2.765437 -0.2259,4.20819 0.161218,1.468683 0.519362,2.929328 1.219857,4.375999 0.635462,1.434609 1.524717,2.573012 2.488821,3.624182 1.131139,1.116644 2.315676,2.141136 3.849788,2.855109 1.063304,0.597455 2.222839,0.874141 3.383052,1.148569 0.742196,0.172957 1.501193,0.278709 2.287429,0.275507 l -0.02684,-2.653846 c -0.04433,-0.33139 -0.440886,-0.62097 -0.648886,-0.703136 -0.501115,-0.004 -1.024341,0.005 -1.213024,-0.183295 -0.249092,-0.201597 -0.51831,-0.432482 -0.542665,-0.785185 l -0.02924,-3.045152 c -0.03627,-0.195996 -0.245562,-0.0736 -0.28095,-0.152228 l -0.302298,-0.550194 c -0.122593,-0.25626 -0.105609,-0.501238 -0.109953,-0.734755 -0.02351,-0.367345 -0.01798,-0.737457 -0.094,-1.0998 -0.06937,-0.294687 -0.118016,-0.635095 -0.280403,-0.90516 -0.195531,-0.407161 -0.382977,-0.716137 -0.754623,-1.091259 -0.375507,-0.500002 -0.710154,-1.034439 -1.008334,-1.442394 -0.260265,-0.388457 -0.431712,-0.747849 -0.632365,-1.32303 -0.151052,-0.519067 -0.27573,-1.038134 -0.31833,-1.557201 -0.04345,-0.360989 -0.05602,-0.719172 -0.01387,-1.07238 0.05397,-0.393474 0.07171,-0.426491 0.0515,-0.560016 -0.03263,-0.300603 -0.393803,-0.27809 -0.613995,-0.28876 -0.143792,-0.0076 -0.300835,-7.7e-4 -0.487355,0.03823 -0.278425,0.07736 -0.550506,0.292846 -0.616802,0.385912 -0.201242,0.175549 -0.364201,0.529116 -0.381902,0.674529 -0.03421,0.230413 -0.06351,0.465748 -0.05164,0.742241 0.01275,1.591737 0.06271,4.672554 0.0032,4.669973 -0.548433,0.03354 -1.061428,0.01392 -1.57156,-0.01 -0.512407,-0.10394 -0.36725,-0.751272 0.10327,-0.755147 l 0.671245,0.01937 c 0.03132,-8.45e-4 0.03012,-3.085144 0.04518,-4.627716 -9e-5,-0.255143 0.04044,-0.428916 0.12396,-0.589047 0.108368,-0.251405 0.240563,-0.48466 0.483956,-0.697801 0.188512,-0.186712 0.34106,-0.305058 0.680985,-0.488208 0.254347,-0.120988 0.505655,-0.180079 0.798868,-0.176696 0.109683,0.0129 0.21565,0.01882 0.294581,-0.02594 0.131075,-0.09352 1.114273,-2.362408 1.26103,-2.458209 1.258051,-0.733646 2.722083,-1.608879 4.086047,-2.441089 1.801082,-1.154331 0.146103,-3.247652 -1.1461,-2.762852 z"
           id="path1023" />
      </g>
      <g
         id="g18370"
         transform="translate(-12.770158,12.63586)">
        <path
           style="fill:#bfc0bf;fill-opacity:1;stroke:#000000;stroke-width:0.1;stroke-linecap:butt;stroke-linejoin:miter;stroke-miterlimit:4;stroke-dasharray:none;stroke-opacity:1"
           d="m 54.796593,27.754364 c 1.96096,0.789899 4.035708,1.55731 5.779895,2.359549 0.418595,0.199672 1.347651,1.220483 1.583144,1.53381 0.616788,0.66045 1.003691,1.101062 1.876886,2.706258 0.591388,1.074102 0.920014,2.316373 1.24174,3.563059 0.357411,1.354711 0.385736,2.765437 0.2259,4.20819 -0.161218,1.468683 -0.519362,2.929328 -1.219857,4.375999 -0.635462,1.434609 -1.524717,2.573012 -2.488821,3.624182 -1.131139,1.116644 -2.315676,2.141136 -3.849788,2.855109 -1.063304,0.597455 -2.222839,0.874141 -3.383052,1.148569 -0.742196,0.172957 -1.501193,0.278709 -2.287429,0.275507 l 0.02684,-2.653846 c 0.04433,-0.33139 0.440886,-0.62097 0.648886,-0.703136 0.501115,-0.004 1.024341,0.005 1.213024,-0.183295 0.249092,-0.201597 0.51831,-0.432482 0.542665,-0.785185 l 0.02924,-3.045152 c 0.03627,-0.195996 0.23316,-0.09117 0.268548,-0.169798 0.111501,-0.18746 0.191885,-0.34647 0.281627,-0.52849 0.106057,-0.293467 0.118011,-0.464031 0.143026,-0.738889 0.02351,-0.367345 0.01798,-0.737457 0.094,-1.0998 0.06937,-0.294687 0.118016,-0.635095 0.280403,-0.90516 0.195531,-0.407161 0.382977,-0.716137 0.754623,-1.091259 0.375507,-0.500002 0.710154,-1.034439 1.008334,-1.442394 0.260265,-0.388457 0.431712,-0.747849 0.632365,-1.32303 0.151052,-0.519067 0.27573,-1.038134 0.31833,-1.557201 0.04345,-0.360989 0.05602,-0.719172 0.01387,-1.07238 -0.08555,-0.387834 -0.115811,-0.65721 -0.02519,-0.757336 0.08963,-0.08282 0.367494,-0.08077 0.587686,-0.09144 0.143792,-0.0076 0.300835,-7.7e-4 0.487355,0.03823 0.278425,0.07736 0.550506,0.292846 0.616802,0.385912 0.201242,0.175549 0.364201,0.529116 0.381902,0.674529 0.03421,0.230413 0.06351,0.465748 0.05164,0.742241 -0.01275,1.591737 -0.06271,4.672554 -0.0032,4.669973 0.548433,0.03354 1.061428,0.01392 1.57156,-0.01 0.512407,-0.10394 0.36725,-0.751272 -0.10327,-0.755147 l -0.671245,0.01937 c -0.03132,-8.45e-4 -0.03012,-3.085144 -0.04518,-4.627716 9e-5,-0.255143 -0.04044,-0.428916 -0.12396,-0.589047 -0.108368,-0.251405 -0.240563,-0.48466 -0.483956,-0.697801 -0.188512,-0.186712 -0.34106,-0.305058 -0.680985,-0.488208 -0.254347,-0.120988 -0.505655,-0.180079 -0.798868,-0.176696 -0.109683,0.0129 -0.21565,0.01882 -0.294581,-0.02594 -0.131075,-0.09352 -1.114273,-2.362408 -1.26103,-2.458209 -1.258051,-0.733646 -2.722083,-1.608879 -4.086047,-2.441089 -1.801082,-1.154331 -0.146103,-3.247652 1.1461,-2.762852 z"
           id="path1023-0" />
      </g>
      <path
         style="fill:none;stroke:#000000;stroke-width:0.1;stroke-linecap:round;stroke-linejoin:miter;stroke-miterlimit:4;stroke-dasharray:none;stroke-opacity:1"
         d="m 32.391672,49.25192 c 1.317951,-7.593693 11.978501,-7.702899 13.287041,-0.01627"
         id="path24426" />
      <path
         style="fill:none;stroke:#000000;stroke-width:0.1;stroke-linecap:round;stroke-linejoin:miter;stroke-miterlimit:4;stroke-dasharray:none;stroke-opacity:1"
         d="m 42.234254,59.500044 -6.38806,0.01455"
         id="path25865" />
    </g>
    <path
       style="fill:none;fill-opacity:1;stroke:#ffffff;stroke-width:0.2;stroke-linecap:square;stroke-linejoin:round;stroke-miterlimit:4;stroke-dasharray:none;stroke-opacity:1"
       d="m 38.414192,60.006672 c 0.0081,-0.953285 0.164914,-2.424799 0.01079,-2.758572 -0.858258,-1.714835 -2.947742,-5.514916 -2.764124,-5.794911 0.102396,-0.162322 1.902357,0.365615 2.321946,-0.363917 -0.05381,0.362887 -0.6065,1.317576 -0.464679,1.146217 0.221502,-0.267637 1.011159,-1.470146 1.041121,-1.015249 0.03423,0.519759 -0.420792,0.843747 -0.280568,1.083514 0.217491,0.371887 1.217528,-1.444017 0.928301,-1.185778 -0.215067,0.192024 0.456316,0.39993 0.586978,0.11565 0.112635,-0.245058 -0.713925,1.080701 -0.290485,1.127556 0.08329,0.0092 0.433284,-0.05378 0.435328,-0.265216 0.0016,-0.164731 0.06261,-0.372682 0.192358,-0.553254 0.141504,-0.196939 0.423986,-0.410094 0.674879,-0.40134 0.329106,0.01148 0.05774,0.526473 0.103606,0.367888 0.283704,-0.980906 -1.150508,0.109206 -0.966818,0.581242 0.340585,0.875219 1.905884,-0.448851 2.373957,-0.637312 0.269553,0.248605 -1.51224,3.958347 -2.1555,5.805973 -0.119409,0.366137 -0.03414,1.791021 -0.02938,2.73304"
       id="path26863" />
    <path
       style="fill:none;fill-opacity:1;stroke:#ef3e42;stroke-width:0.2;stroke-linecap:round;stroke-linejoin:miter;stroke-miterlimit:4;stroke-dasharray:none;stroke-opacity:1"
       d="m 36.449253,48.706649 1.063307,1.718245"
       id="path47952-1-9" />
    <path
       style="fill:none;fill-opacity:1;stroke:#ef3e42;stroke-width:0.2;stroke-linecap:round;stroke-linejoin:miter;stroke-miterlimit:4;stroke-dasharray:none;stroke-opacity:1"
       d="m 39.434002,45.641202 -0.04497,4.367936"
       id="path47952-1-2-7" />
    <path
       style="fill:none;fill-opacity:1;stroke:#ef3e42;stroke-width:0.2;stroke-linecap:round;stroke-linejoin:miter;stroke-miterlimit:4;stroke-dasharray:none;stroke-opacity:1"
       d="m 41.361255,46.601171 -1.026881,3.561115"
       id="path47952-1-2" />
    <path
       style="fill:none;fill-opacity:1;stroke:#ef3e42;stroke-width:0.2;stroke-linecap:round;stroke-linejoin:miter;stroke-miterlimit:4;stroke-dasharray:none;stroke-opacity:1"
       d="m 37.356138,46.551597 1.026881,3.561116"
       id="path47952-1-2-9" />
    <path
       style="fill:none;fill-opacity:1;stroke:#ef3e42;stroke-width:0.2;stroke-linecap:round;stroke-linejoin:miter;stroke-miterlimit:4;stroke-dasharray:none;stroke-opacity:1"
       d="m 42.330115,48.721322 -1.063307,1.718245"
       id="path47952-1" />
    <path
       style="fill:none;stroke:#000000;stroke-width:0.00835165;stroke-linecap:round;stroke-linejoin:round;stroke-miterlimit:4;stroke-dasharray:none;stroke-opacity:0;stop-color:#000000"
       d="m 51.353857,102.81222 c 1.32e-4,-0.24003 -0.02012,-2.46493 -0.045,-4.944222 l -0.04522,-4.507806 -0.05335,-0.216723 c -0.219086,-0.890065 -1.134118,-1.882408 -2.270886,-2.462755 l -0.248474,-0.126852 -1.005418,-0.01426 c -1.832768,-0.02599 -2.621612,-0.12665 -3.193029,-0.407457 -0.295222,-0.145078 -1.296068,-1.032576 -1.630104,-1.445491 -0.339622,-0.419818 -0.553521,-0.850906 -0.647206,-1.304359 -0.02924,-0.141544 -0.04167,-0.912227 -0.0871,-5.402107 -0.02914,-2.880355 -0.05598,-5.520404 -0.05963,-5.866776 -0.0065,-0.620135 -0.0075,-0.631835 -0.06367,-0.764967 l -0.05703,-0.1352 1.681161,-0.0139 c 0.924638,-0.0076 5.494564,-0.01895 10.155392,-0.02512 4.660829,-0.0062 8.845706,-0.01726 9.299728,-0.02462 l 0.825495,-0.0134 -0.05588,0.09638 c -0.129285,0.222979 -0.119257,-0.09943 -0.168969,5.432828 -0.02517,2.801358 -0.05463,5.451351 -0.06547,5.888873 -0.01874,0.756834 -0.02249,0.805535 -0.07714,1.002067 -0.202142,0.726924 -0.655464,1.316092 -1.659172,2.156374 -0.481255,0.402896 -0.648785,0.497753 -1.074609,0.608456 -0.56666,0.147317 -1.078838,0.192331 -2.549313,0.224053 l -1.149049,0.02479 -0.243068,0.117869 c -0.133687,0.06483 -0.35742,0.193781 -0.497184,0.286563 -0.962738,0.63911 -1.635306,1.475286 -1.801518,2.239754 -0.02617,0.120379 -0.03973,0.973317 -0.0773,4.863707 -0.02506,2.594751 -0.05105,4.819651 -0.05777,4.944221 l -0.01221,0.2265 H 52.887251 51.35363 l 2.28e-4,-0.43642 z"
       id="path1629"
       transform="matrix(0.26458333,0,0,0.26458333,25.215841,40.265166)" />
    <path
       style="fill:none;stroke:#000000;stroke-width:0.00835165;stroke-linecap:round;stroke-linejoin:round;stroke-miterlimit:4;stroke-dasharray:none;stroke-opacity:0;stop-color:#000000"
       d="m 51.353857,102.81222 c 1.32e-4,-0.24003 -0.02012,-2.46493 -0.045,-4.944222 l -0.04522,-4.507806 -0.05335,-0.216723 c -0.219086,-0.890065 -1.134118,-1.882408 -2.270886,-2.462755 l -0.248474,-0.126852 -1.005418,-0.01426 c -1.832768,-0.02599 -2.621612,-0.12665 -3.193029,-0.407457 -0.295222,-0.145078 -1.296068,-1.032576 -1.630104,-1.445491 -0.339622,-0.419818 -0.553521,-0.850906 -0.647206,-1.304359 -0.02924,-0.141544 -0.04167,-0.912227 -0.0871,-5.402107 -0.02914,-2.880355 -0.05598,-5.520404 -0.05963,-5.866776 -0.0065,-0.620135 -0.0075,-0.631835 -0.06367,-0.764967 l -0.05703,-0.1352 1.681161,-0.0139 c 0.924638,-0.0076 5.494564,-0.01895 10.155392,-0.02512 4.660829,-0.0062 8.845706,-0.01726 9.299728,-0.02462 l 0.825495,-0.0134 -0.05588,0.09638 c -0.129285,0.222979 -0.119257,-0.09943 -0.168969,5.432828 -0.02517,2.801358 -0.05463,5.451351 -0.06547,5.888873 -0.01874,0.756834 -0.02249,0.805535 -0.07714,1.002067 -0.202142,0.726924 -0.655464,1.316092 -1.659172,2.156374 -0.481255,0.402896 -0.648785,0.497753 -1.074609,0.608456 -0.56666,0.147317 -1.078838,0.192331 -2.549313,0.224053 l -1.149049,0.02479 -0.243068,0.117869 c -0.133687,0.06483 -0.35742,0.193781 -0.497184,0.286563 -0.962738,0.63911 -1.635306,1.475286 -1.801518,2.239754 -0.02617,0.120379 -0.03973,0.973317 -0.0773,4.863707 -0.02506,2.594751 -0.05105,4.819651 -0.05777,4.944221 l -0.01221,0.2265 H 52.887251 51.35363 l 2.28e-4,-0.43642 z"
       id="path1668"
       transform="matrix(0.26458333,0,0,0.26458333,25.215841,40.265166)" />
    <path
       style="fill:none;stroke:#000000;stroke-width:0.00835165;stroke-linecap:round;stroke-linejoin:round;stroke-miterlimit:4;stroke-dasharray:none;stroke-opacity:0;stop-color:#000000"
       d="m 51.353857,102.81222 c 1.32e-4,-0.24003 -0.02012,-2.46493 -0.045,-4.944222 l -0.04522,-4.507806 -0.05335,-0.216723 c -0.219086,-0.890065 -1.134118,-1.882408 -2.270886,-2.462755 l -0.248474,-0.126852 -1.005418,-0.01426 c -1.832768,-0.02599 -2.621612,-0.12665 -3.193029,-0.407457 -0.295222,-0.145078 -1.296068,-1.032576 -1.630104,-1.445491 -0.339622,-0.419818 -0.553521,-0.850906 -0.647206,-1.304359 -0.02924,-0.141544 -0.04167,-0.912227 -0.0871,-5.402107 -0.02914,-2.880355 -0.05598,-5.520404 -0.05963,-5.866776 -0.0065,-0.620135 -0.0075,-0.631835 -0.06367,-0.764967 l -0.05703,-0.1352 1.681161,-0.0139 c 0.924638,-0.0076 5.494564,-0.01895 10.155392,-0.02512 4.660829,-0.0062 8.845706,-0.01726 9.299728,-0.02462 l 0.825495,-0.0134 -0.05588,0.09638 c -0.129285,0.222979 -0.119257,-0.09943 -0.168969,5.432828 -0.02517,2.801358 -0.05463,5.451351 -0.06547,5.888873 -0.01874,0.756834 -0.02249,0.805535 -0.07714,1.002067 -0.202142,0.726924 -0.655464,1.316092 -1.659172,2.156374 -0.481255,0.402896 -0.648785,0.497753 -1.074609,0.608456 -0.56666,0.147317 -1.078838,0.192331 -2.549313,0.224053 l -1.149049,0.02479 -0.243068,0.117869 c -0.133687,0.06483 -0.35742,0.193781 -0.497184,0.286563 -0.962738,0.63911 -1.635306,1.475286 -1.801518,2.239754 -0.02617,0.120379 -0.03973,0.973317 -0.0773,4.863707 -0.02506,2.594751 -0.05105,4.819651 -0.05777,4.944221 l -0.01221,0.2265 H 52.887251 51.35363 l 2.28e-4,-0.43642 z"
       id="path1707"
       transform="matrix(0.26458333,0,0,0.26458333,25.215841,40.265166)" />
    <path
       style="fill:none;stroke:#000000;stroke-width:0.1;stroke-linecap:butt;stroke-linejoin:miter;stroke-miterlimit:4;stroke-dasharray:none;stroke-opacity:1"
       d="m 38.726324,64.978916 c 0.292051,0.232683 0.612763,0.255189 0.970933,0.003"
       id="path1379" />
    <path
       style="fill:#ffffff;stroke:#000000;stroke-width:0.00590551;stroke-linecap:round;stroke-linejoin:round;stroke-miterlimit:4;stroke-dasharray:none;stroke-opacity:0.00910746;stop-color:#000000"
       d="m 52.585938,93.888886 c -0.138715,-0.02036 -0.371886,-0.07661 -0.490321,-0.118286 -0.242139,-0.08521 -0.608343,-0.284834 -0.800858,-0.436559 -0.04577,-0.03607 -0.05894,-0.05899 -0.06779,-0.117997 -0.03091,-0.206113 -0.197012,-0.591863 -0.37023,-0.859802 -0.420987,-0.651197 -1.164502,-1.297111 -1.934868,-1.680877 l -0.226562,-0.112865 -0.6875,-0.01097 c -1.577617,-0.02517 -2.20065,-0.06639 -2.791394,-0.184659 -0.405222,-0.08113 -0.768008,-0.222183 -0.953671,-0.370791 -0.86529,-0.692592 -1.392202,-1.225179 -1.689142,-1.707336 -0.198815,-0.322827 -0.335878,-0.697625 -0.38558,-1.054371 -0.0088,-0.06308 -0.03856,-2.556389 -0.07035,-5.890625 -0.06063,-6.360421 -0.04847,-5.87153 -0.150786,-6.066027 l -0.04335,-0.08241 0.635884,1.12e-4 c 0.349737,6.2e-5 5.292989,-0.011 10.985006,-0.02458 5.692016,-0.01358 10.353107,-0.0207 10.357977,-0.01583 0.0049,0.0049 -0.002,0.0212 -0.01531,0.0363 -0.04071,0.04623 -0.105405,0.187167 -0.129252,0.281585 -0.01903,0.07535 -0.03147,1.009192 -0.07818,5.870854 -0.05985,6.228443 -0.05274,5.913321 -0.140631,6.235931 -0.136286,0.500259 -0.419117,0.95508 -0.906223,1.457296 -0.290549,0.299561 -0.989858,0.905533 -1.200127,1.039945 -0.313798,0.200593 -0.849336,0.336989 -1.596748,0.406676 -0.461397,0.04302 -0.822794,0.05741 -1.765625,0.07031 l -0.9375,0.01283 -0.143273,0.06342 c -0.465167,0.205916 -0.998439,0.578779 -1.433007,1.001957 -0.521363,0.507697 -0.840387,1.007672 -0.969905,1.520036 -0.04175,0.165153 -0.03575,0.158659 -0.281853,0.305133 -0.216517,0.128864 -0.41907,0.223439 -0.646495,0.301859 -0.284911,0.09824 -0.439021,0.125141 -0.75203,0.131264 -0.150391,0.0029 -0.294531,0.0023 -0.320312,-0.0015 z"
       id="path1711"
       transform="matrix(0.26458333,0,0,0.26458333,25.215841,40.265166)" />
    <path
       style="fill:#005a9c;fill-opacity:1;stroke:none;stroke-width:0.00835165;stroke-linecap:round;stroke-linejoin:round;stroke-miterlimit:4;stroke-dasharray:none;stroke-opacity:1;stop-color:#000000"
       d=""
       id="path14883"
       transform="matrix(0.26458333,0,0,0.26458333,25.215841,40.265166)" />
    <path
       style="fill:#005a9c;fill-opacity:1;stroke:none;stroke-width:0.023622;stroke-linecap:round;stroke-linejoin:round;stroke-miterlimit:4;stroke-dasharray:none;stroke-opacity:1;stop-color:#000000"
       d="m 50.292382,73.893878 c 0.02152,-0.888603 0.06019,-1.767477 0.181626,-4.128253 0.05086,-0.988676 0.0689,-1.735464 0.07059,-2.921875 0.0025,-1.743092 -0.02219,-2.089951 -0.185053,-2.600569 -0.0869,-0.272471 -0.65253,-1.381828 -3.35051,-6.571306 -3.621217,-6.965298 -5.103312,-9.92543 -6.15417,-12.291495 -0.507547,-1.142769 -0.952078,-2.340788 -1.001,-2.697713 l -0.01999,-0.145845 0.393243,0.02102 c 0.216283,0.01156 0.784521,0.05547 1.262749,0.09758 0.478228,0.0421 1.118743,0.09284 1.423366,0.112741 0.723097,0.04725 2.226558,0.02094 2.711765,-0.04744 0.59525,-0.08389 1.285111,-0.268775 1.604591,-0.430028 0.06612,-0.03337 0.128145,-0.05275 0.137837,-0.04306 0.02518,0.02518 -0.152181,0.418315 -0.72712,1.611738 -0.643775,1.336311 -0.628006,1.294705 -0.578725,1.526927 0.03854,0.18159 0.04023,0.183665 0.20659,0.252616 0.210845,0.08739 0.323132,0.06675 0.477196,-0.0877 0.0627,-0.06286 0.395048,-0.493853 0.738544,-0.957756 0.809961,-1.09388 1.29882,-1.72991 1.657499,-2.156489 0.295623,-0.351587 0.818595,-0.890096 0.864415,-0.890096 0.04262,0 0.02838,0.394584 -0.02326,0.644576 -0.08096,0.391955 -0.220606,0.741352 -0.610421,1.527299 -0.425858,0.858615 -0.516976,1.137221 -0.48738,1.490237 0.03126,0.372835 0.197436,0.654826 0.464246,0.787782 0.285303,0.142173 0.608086,0.09289 0.970156,-0.148109 0.62613,-0.416769 1.635412,-1.739381 2.459969,-3.22366 0.124125,-0.223437 0.235145,-0.41571 0.24671,-0.427273 0.01157,-0.01156 0.125108,0.0141 0.252316,0.05702 0.140216,0.04731 0.338503,0.08499 0.50357,0.09569 l 0.272282,0.01764 -0.194828,0.41002 c -0.641868,1.350823 -0.844505,2.288801 -0.610224,2.824643 0.09497,0.217217 0.301173,0.39846 0.528525,0.464553 0.442306,0.128582 1.389185,-0.107808 1.777949,-0.443868 l 0.11545,-0.0998 0.187994,0.170504 c 0.404686,0.367038 0.936565,0.531724 1.609698,0.498412 1.185471,-0.05867 2.537256,-0.648151 5.015796,-2.187281 1.728429,-1.073323 1.811908,-1.121769 1.822019,-1.05738 0.02986,0.190165 -0.339116,1.474465 -0.769377,2.677968 -0.659903,1.845845 -1.358181,3.57644 -3.599548,8.921025 -1.215586,2.898588 -1.765795,4.228741 -2.35906,5.703125 -0.775149,1.926402 -1.439021,3.708368 -1.527754,4.100801 -0.213615,0.944734 -0.242252,2.892049 -0.112717,7.664824 0.01609,0.592969 0.02961,1.454297 0.03004,1.914063 l 7.76e-4,0.835937 H 53.12001 50.271269 Z"
       id="path15478"
       transform="matrix(0.26458333,0,0,0.26458333,25.215841,40.265166)" />
    <path
       style="fill:#005a9c;fill-opacity:1;stroke:none;stroke-width:0.023622;stroke-linecap:round;stroke-linejoin:round;stroke-miterlimit:4;stroke-dasharray:none;stroke-opacity:1;stop-color:#000000"
       d="M 40.354307,73.757444 C 40.042145,73.186163 39.750619,72.616709 39.706473,72.491997 39.552115,72.055938 39.500932,71.709159 39.467808,70.875 39.319816,67.148181 39.290582,66.844181 38.9219,65.198091 38.703147,64.221406 38.597159,63.825269 38.434306,63.375678 38.327492,63.080794 37.695718,61.814675 37.350236,61.203125 36.829212,60.280844 36.171961,59.396484 35.434745,58.625753 35.007933,58.179538 34.516374,57.500747 32.848569,55.054531 32.329978,54.293897 31.776526,53.492334 31.618677,53.273281 30.613342,51.878134 29.814516,50.298459 29.110935,48.314234 28.802691,47.444928 28.330627,45.612635 28.096048,44.375 c -0.144205,-0.760823 -0.210097,-1.227922 -0.31299,-2.21875 -0.214818,-2.068629 -0.211376,-2.967784 0.01759,-4.59375 0.06051,-0.429687 0.122143,-0.928906 0.13697,-1.109375 0.01483,-0.180469 0.08493,-0.616406 0.155791,-0.96875 0.835288,-4.153485 2.424249,-7.793258 4.767999,-10.921875 1.187644,-1.585359 2.700175,-3.138315 4.284393,-4.398901 3.311622,-2.635106 7.389222,-4.410723 11.713511,-5.100721 1.49292,-0.238215 2.463063,-0.310748 4.156318,-0.310748 1.471541,0 2.044998,0.03283 3.259988,0.18661 5.08475,0.643585 9.669525,2.693388 13.379515,5.981834 0.543066,0.481359 1.609438,1.55485 2.073747,2.087591 2.658478,3.050293 4.514,6.700685 5.571344,10.960585 0.196953,0.793496 0.438312,2.018213 0.495765,2.515625 0.05363,0.464342 0.106494,0.788106 0.218594,1.338792 0.264928,1.301437 0.14396,4.045133 -0.281975,6.395583 -0.237275,1.309367 -0.733822,3.23895 -1.080737,4.199763 -0.725003,2.00795 -1.415219,3.369178 -2.447038,4.825993 -0.215722,0.304575 -0.811809,1.168694 -1.324634,1.92026 -1.656091,2.427056 -2.076428,3.004109 -2.568806,3.526553 -0.640557,0.679669 -1.241738,1.470687 -1.694419,2.229472 -0.264444,0.443259 -1.002691,1.851106 -1.139456,2.172959 -0.219922,0.517544 -0.397338,1.154481 -0.664897,2.387016 -0.240753,1.109059 -0.312172,1.655643 -0.374091,2.862984 -0.01851,0.360938 -0.04775,0.930469 -0.06497,1.265625 -0.06526,1.269913 -0.1829,2.084766 -0.406515,2.815903 -0.129641,0.423888 -0.507472,1.214491 -0.948019,1.983716 l -0.180547,0.315247 -1.520797,0.02066 c -0.836441,0.01136 -2.647803,0.02068 -4.025253,0.02069 h -2.504454 l -0.01777,-0.539063 c -0.04854,-1.472247 -0.115507,-5.363619 -0.114773,-6.669387 0.0011,-2.029625 0.05639,-2.754828 0.253983,-3.333635 0.565461,-1.656418 1.621349,-4.277775 4.168417,-10.34854 1.784816,-4.253997 2.572428,-6.21661 3.202284,-7.979638 0.902947,-2.527423 1.057875,-3.602467 0.566835,-3.933215 -0.0584,-0.03934 -0.151241,-0.07152 -0.206313,-0.07152 -0.197247,0 -0.781981,0.320293 -2.140628,1.172546 -1.655456,1.038434 -2.949994,1.742928 -3.734375,2.032262 -0.93125,0.343511 -1.643965,0.408434 -2.107902,0.192016 -0.185816,-0.08668 -0.437185,-0.340153 -0.537155,-0.541652 -0.07346,-0.148073 -0.07742,-0.177009 -0.05123,-0.375 0.03779,-0.285755 0.225657,-0.845403 0.35702,-1.063552 0.324786,-0.539362 1.213969,-1.372591 1.748042,-1.638045 0.21115,-0.104948 0.620142,-0.188881 0.787807,-0.161673 l 0.1089,0.01767 -0.0194,0.253025 c -0.01067,0.139164 -0.04752,0.358494 -0.08189,0.487401 -0.08384,0.31442 -0.08034,0.364234 0.038,0.541294 l 0.101562,0.151959 0.21875,-0.01693 c 0.197769,-0.01531 0.226791,-0.02647 0.302597,-0.116379 0.268775,-0.318789 0.389194,-1.154566 0.221006,-1.533903 -0.251553,-0.567352 -0.677159,-0.776069 -1.299972,-0.637507 -0.343251,0.07637 -1.151653,0.484993 -1.54363,0.780264 -0.380725,0.286797 -0.782602,0.70437 -1.013088,1.05266 -0.64773,0.97879 -0.798897,1.366909 -0.768724,1.973693 0.01156,0.232373 0.0045,0.342971 -0.02574,0.402307 -0.09069,0.178053 -0.594145,0.406047 -1.002653,0.454059 -0.149849,0.01761 -0.182309,0.01211 -0.218225,-0.03701 -0.124013,-0.169598 0.02903,-0.86398 0.366726,-1.663853 0.215102,-0.509502 0.720187,-1.468572 0.859139,-1.631359 0.169079,-0.198081 0.24797,-0.328769 0.295324,-0.489225 0.03473,-0.117691 0.03095,-0.145059 -0.04213,-0.304687 l -0.08029,-0.175347 h -0.222534 c -0.122393,0 -0.248838,0.01408 -0.280988,0.03128 -0.03215,0.01721 -0.116308,0.12074 -0.187016,0.230075 -0.07071,0.109334 -0.166525,0.217027 -0.212927,0.239318 -0.139085,0.06681 -0.619423,0.07647 -0.851123,0.01711 -0.11079,-0.02838 -0.213173,-0.06334 -0.227518,-0.07769 -0.01434,-0.01434 -0.0039,-0.100694 0.02316,-0.191889 0.08869,-0.298658 0.05154,-0.483995 -0.127147,-0.634306 -0.116783,-0.09824 -0.329841,-0.112293 -0.497338,-0.03281 -0.131028,0.06218 -0.347771,0.294173 -0.406784,0.435411 -0.05182,0.124033 -0.05859,0.411091 -0.01254,0.532201 0.02794,0.07348 0.0097,0.125708 -0.144959,0.416097 -0.66622,1.25055 -1.653272,2.637558 -2.195813,3.085562 -0.225932,0.186564 -0.310905,0.227107 -0.349184,0.166605 -0.08225,-0.129999 1.87e-4,-0.364971 0.43759,-1.24744 0.480213,-0.968812 0.621605,-1.390286 0.690005,-2.05683 0.08651,-0.843007 -0.132579,-1.285772 -0.636923,-1.287189 -0.201295,-5.66e-4 -0.38725,0.0757 -0.643269,0.263827 -0.177262,0.130254 -0.764663,0.732354 -1.03073,1.056521 -0.109577,0.133506 -0.205268,0.236701 -0.212647,0.229321 -0.0074,-0.0074 0.04252,-0.165829 0.110886,-0.352112 0.06837,-0.186283 0.1557,-0.479321 0.194076,-0.651196 0.06519,-0.291985 0.06655,-0.320148 0.02065,-0.429003 -0.05458,-0.129438 -0.211767,-0.242575 -0.337282,-0.242755 -0.173955,-2.5e-4 -0.278006,0.06567 -0.409664,0.259547 -0.486953,0.71707 -1.340897,1.08196 -2.837187,1.212331 -0.606752,0.05287 -2.001424,0.01647 -3.078125,-0.08033 -1.509229,-0.135682 -1.953163,-0.158944 -2.238796,-0.117312 -0.420062,0.06122 -0.616836,0.229696 -0.667343,0.571361 -0.06818,0.461241 0.349893,1.705463 1.232987,3.669432 1.09103,2.426416 2.413996,5.059278 6.235987,12.410369 2.748055,5.285522 3.099683,5.986812 3.156049,6.294453 0.126668,0.691334 0.138962,2.468884 0.03198,4.623778 -0.02688,0.541406 -0.07691,1.553906 -0.111192,2.25 -0.03428,0.696094 -0.0714,1.689069 -0.0825,2.206609 l -0.02018,0.940985 -0.281111,0.01995 c -0.154611,0.01098 -2.082467,0.01979 -4.284123,0.01958 L 40.921894,74.79612 Z M 60.890994,38.778135 c 0.03508,-0.02299 0.984506,-1.529345 2.109831,-3.347464 1.832409,-2.960505 2.047159,-3.320838 2.056663,-3.450928 0.01271,-0.173903 -0.02769,-0.259361 -0.161044,-0.340673 -0.150072,-0.0915 -0.342638,-0.08097 -0.456785,0.02499 -0.05092,0.04727 -1.003259,1.555468 -2.116309,3.351562 l -2.023731,3.265625 -0.0014,0.17717 c -0.0011,0.146025 0.01206,0.191466 0.07503,0.258497 0.130997,0.139441 0.357463,0.16622 0.517716,0.06122 z m -14.184068,-0.059 c 0.104878,-0.06872 0.178353,-0.248294 0.154222,-0.376924 -0.01414,-0.07539 -2.584393,-4.271786 -4.002053,-6.534073 -0.06613,-0.105525 -0.158567,-0.214509 -0.205422,-0.242187 -0.101434,-0.05992 -0.264539,-0.06446 -0.371485,-0.01035 -0.108403,0.05485 -0.219688,0.232109 -0.219688,0.349921 0,0.121214 -0.101986,-0.04867 2.241654,3.734026 1.460246,2.356875 1.891583,3.030711 1.977096,3.088627 0.124356,0.08422 0.28866,0.08073 0.425676,-0.009 z M 57.408611,37.6831 c 0.07938,-0.08013 0.29006,-0.788418 2.043073,-6.868646 1.097038,-3.805012 1.954566,-6.83294 1.954566,-6.901563 0,-0.152648 -0.150881,-0.3192 -0.317484,-0.350454 -0.135113,-0.02535 -0.314666,0.04336 -0.381282,0.145892 -0.02606,0.04011 -0.927903,3.124486 -2.004099,6.854173 -1.53354,5.314658 -1.953538,6.807259 -1.941991,6.901509 0.01511,0.123349 0.112104,0.255898 0.222981,0.304723 0.119676,0.0527 0.329072,0.01043 0.424236,-0.08563 z m -7.371243,-0.19042 c 0.06037,-0.06037 0.09749,-0.134473 0.107372,-0.214348 C 50.156725,37.181467 49.755685,35.755551 48.203171,30.375 47.127,26.645313 46.225097,23.560935 46.198943,23.520827 46.13205,23.418249 45.952547,23.349597 45.817484,23.374935 45.651386,23.406095 45.5,23.572776 45.5,23.724496 c 0,0.06746 0.868527,3.133193 1.955221,6.901562 1.471114,5.101435 1.972112,6.798447 2.023438,6.853922 0.0957,0.103438 0.17234,0.130593 0.32983,0.11687 0.09977,-0.0087 0.161496,-0.03679 0.228879,-0.10417 z m 3.743882,-0.349329 c 0.04297,-0.0295 0.101408,-0.101946 0.129866,-0.160993 0.04708,-0.09769 0.05934,-0.856031 0.13616,-8.424245 0.09287,-9.149211 0.102162,-8.42373 -0.109776,-8.567448 -0.123349,-0.08365 -0.288421,-0.08098 -0.422415,0.0068 -0.177216,0.116117 -0.160734,-0.409274 -0.247689,7.895589 -0.04417,4.218187 -0.08021,7.988274 -0.0801,8.377971 l 1.88e-4,0.70854 0.08072,0.09593 c 0.132513,0.157483 0.342094,0.185199 0.513034,0.06785 z"
       id="path15517"
       transform="matrix(0.26458333,0,0,0.26458333,25.215841,40.265166)" />
    <path
       style="fill:none;fill-opacity:1;stroke:#000000;stroke-width:0.01;stroke-linecap:butt;stroke-linejoin:miter;stroke-miterlimit:4;stroke-dasharray:none;stroke-opacity:1"
       d="m 37.572709,43.603464 c 1.1553,-0.263807 2.247072,-0.270853 3.270085,0"
       id="path1037" />
    <path
       style="fill:#ffffff;fill-opacity:1;stroke-width:0.0023622;stroke-linecap:round;stroke-linejoin:round;stroke-miterlimit:4;stroke-dasharray:none;stop-color:#000000"
       d="m 87.337163,59.298104 -0.944088,-0.02001 -0.04029,-0.476601 c -0.05916,-0.699865 -0.04988,-4.669628 0.02753,-11.775518 0.06217,-5.706548 0.05902,-6.36965 -0.03416,-7.1875 C 86.17613,38.346176 85.75233,37.390898 84.817412,36.392572 84.001136,35.52094 82.993386,34.930586 81.999324,34.7417 c -0.801225,-0.152245 -3.001437,-0.09325 -3.530575,0.09467 -0.20625,0.07325 -0.398031,0.14003 -0.426181,0.148404 -0.02815,0.0084 -0.201482,-0.575397 -0.385175,-1.297272 -1.301413,-5.114196 -3.62579,-9.185288 -7.193335,-12.598943 -4.80191,-4.594775 -11.666702,-7.074555 -18.661899,-6.741269 -5.623854,0.267948 -10.724813,2.150465 -14.98966,5.531958 -1.008264,0.799428 -3.00553,2.781948 -3.766575,3.738768 -2.411078,3.031312 -4.120378,6.547745 -5.04771,10.384324 -0.33114,1.370001 -0.285762,1.261643 -0.459856,1.098091 -0.281522,-0.264476 -0.757283,-0.388509 -1.706468,-0.444883 -0.975155,-0.05792 -1.907732,0.0037 -2.452414,0.162048 -1.303492,0.378935 -2.67718,1.563146 -3.350025,2.887945 -0.334781,0.659167 -0.45157,1.07176 -0.565125,1.99648 -0.09796,0.797699 -0.100087,1.456765 -0.02921,9.032967 0.04205,4.494867 0.05604,8.69293 0.03107,9.329029 l -0.04539,1.156544 -0.156603,0.0393 c -0.08613,0.02162 -1.375602,0.02497 -2.865492,0.0075 l -2.708891,-0.03185 -0.357742,-0.180235 c -0.559143,-0.281702 -0.754306,-0.668993 -0.630243,-1.250683 0.04713,-0.22098 0.134386,-0.365165 0.352282,-0.582123 0.434576,-0.432706 0.578647,-0.458636 2.255685,-0.405984 1.291626,0.04055 1.423803,0.03518 1.46007,-0.05933 0.08369,-0.218103 0.116403,-2.203742 0.167935,-10.194616 0.04728,-7.330753 0.06467,-8.296806 0.15614,-8.670074 0.133881,-0.546357 0.874139,-2.026334 1.281982,-2.563029 0.361339,-0.475499 1.298311,-1.360116 1.922958,-1.815507 0.978847,-0.713617 2.123695,-1.242528 3.084868,-1.425187 0.218622,-0.04155 0.805308,-0.07956 1.303746,-0.08448 0.722497,-0.0071 0.946688,-0.03058 1.105687,-0.115655 0.25128,-0.134454 0.63508,-0.810455 1.569018,-2.763568 0.378061,-0.790625 1.070978,-2.239054 1.539817,-3.21873 0.792638,-1.656281 1.500507,-3.027323 1.678647,-3.251299 0.04157,-0.05227 1.172456,-0.739637 2.513081,-1.52749 5.926676,-3.482967 12.919321,-7.70581 13.589441,-8.206633 0.507741,-0.379467 0.599089,-0.408251 2.035559,-0.641413 3.231416,-0.524511 6.552868,-0.470665 9.32391,0.151155 0.491617,0.110318 0.684054,0.184641 0.845819,0.326673 0.115175,0.101125 0.405353,0.313622 0.64484,0.472215 0.95825,0.634573 9.733419,5.898913 13.779181,8.266313 0.979687,0.57327 1.844306,1.118112 1.921375,1.210759 0.188456,0.226552 1.183081,2.192473 2.26705,4.48095 1.178513,2.488067 2.091194,4.295086 2.286706,4.527438 0.214263,0.254635 0.472269,0.310426 1.437519,0.310849 1.601031,7e-4 2.913919,0.476351 4.405912,1.596235 0.757244,0.568385 1.835119,1.710059 2.197763,2.327848 0.423787,0.721946 0.841006,1.729968 0.918744,2.219727 0.04243,0.26732 0.08991,3.635625 0.130831,9.281251 0.03533,4.873908 0.08479,8.974152 0.109931,9.111652 l 0.04571,0.25 h 1.561107 1.561106 l 0.298275,0.17533 c 0.16405,0.09643 0.374988,0.291252 0.46875,0.432936 0.142213,0.214902 0.170475,0.325705 0.170475,0.66842 0,0.516959 -0.159331,0.768535 -0.619344,0.977926 -0.285112,0.12978 -0.441487,0.148508 -1.505656,0.180317 -2.117013,0.06328 -2.671844,0.07102 -3.631587,0.05068 z"
       id="path1199"
       transform="matrix(0.26458333,0,0,0.26458333,25.215841,40.265166)" />
  </g>
</svg>
