<?xml version="1.0" encoding="UTF-8" standalone="no"?>
<!-- Created with Inkscape (http://www.inkscape.org/) -->

<svg
   width="30.027731mm"
   height="30.027731mm"
   viewBox="0 0 30.027731 30.027731"
   version="1.1"
   id="svg917"
   sodipodi:docname="portfolio_logo.svg"
   inkscape:version="1.1.2 (b8e25be833, 2022-02-05)"
   inkscape:export-filename="C:\Users\sever\Downloads\logo_xs.png"
   inkscape:export-xdpi="36.285713"
   inkscape:export-ydpi="36.285713"
   xmlns:inkscape="http://www.inkscape.org/namespaces/inkscape"
   xmlns:sodipodi="http://sodipodi.sourceforge.net/DTD/sodipodi-0.dtd"
   xmlns="http://www.w3.org/2000/svg"
   xmlns:svg="http://www.w3.org/2000/svg">
  <sodipodi:namedview
     id="namedview919"
     pagecolor="#505050"
     bordercolor="#eeeeee"
     borderopacity="1"
     inkscape:pageshadow="0"
     inkscape:pageopacity="0"
     inkscape:pagecheckerboard="0"
     inkscape:document-units="mm"
     showgrid="false"
     inkscape:zoom="8"
     inkscape:cx="75.25"
     inkscape:cy="17.25"
     inkscape:window-width="3840"
     inkscape:window-height="2054"
     inkscape:window-x="-11"
     inkscape:window-y="-11"
     inkscape:window-maximized="1"
     inkscape:current-layer="layer1" />
  <defs
     id="defs914">
    <clipPath
       clipPathUnits="userSpaceOnUse"
       id="clipPath29205">
      <rect
         style="fill:#bfc0bf;fill-opacity:1;stroke-width:1.03104;stroke-linecap:round;stroke-linejoin:round;stroke-miterlimit:4;stroke-dasharray:none;stop-color:#000000"
         id="rect29207"
         width="22.75"
         height="4.1875"
         x="45.124985"
         y="88.5625" />
    </clipPath>
  </defs>
  <g
     inkscape:label="Layer 1"
     inkscape:groupmode="layer"
     id="layer1"
     transform="translate(-24.201974,-38.853738)">
    <path
       style="fill:none;fill-opacity:1;stroke:#ffffff;stroke-width:0.2;stroke-linecap:square;stroke-linejoin:round;stroke-miterlimit:4;stroke-dasharray:none;stroke-opacity:1"
       d="m 38.41824,60.00166 c 0.0081,-0.953285 0.164914,-2.424799 0.01079,-2.758572 -0.858258,-1.714835 -2.947742,-5.514916 -2.764124,-5.794911 0.102396,-0.162322 1.902357,0.365615 2.321946,-0.363917 -0.05381,0.362887 -0.6065,1.317576 -0.464679,1.146217 0.221502,-0.267637 1.011159,-1.470146 1.041121,-1.015249 0.03423,0.519759 -0.420792,0.843747 -0.280568,1.083514 0.217491,0.371887 1.217528,-1.444017 0.928301,-1.185778 -0.215067,0.192024 0.456316,0.39993 0.586978,0.11565 0.112635,-0.245058 -0.713925,1.080701 -0.290485,1.127556 0.08329,0.0092 0.433284,-0.05378 0.435328,-0.265216 0.0016,-0.164731 0.06261,-0.372682 0.192358,-0.553254 0.141504,-0.196939 0.423986,-0.410094 0.674879,-0.40134 0.329106,0.01148 0.05774,0.526473 0.103606,0.367888 0.283704,-0.980906 -1.150508,0.109206 -0.966818,0.581242 0.340585,0.875219 1.905884,-0.448851 2.373957,-0.637312 0.269553,0.248605 -1.51224,3.958347 -2.1555,5.805973 -0.119409,0.366137 -0.03414,1.791021 -0.02938,2.73304"
       id="path26863"
       sodipodi:nodetypes="ccccssssscsssssccc" />
    <circle
       style="fill:#ffffff;fill-opacity:1;stroke-width:0.010165;stroke-linecap:round;stroke-linejoin:round;stop-color:#000000"
       id="path14429"
       cx="39.215839"
       cy="53.867603"
       r="14.405828" />
    <circle
       style="fill:#000000;stroke-width:0.00954647;stroke-linecap:round;stroke-linejoin:round;stop-color:#000000;fill-opacity:1"
       id="path1189"
       cx="39.215839"
       cy="53.867603"
       r="15.013865" />
    <path
       style="fill:#005a9c;fill-opacity:1;stroke:none;stroke-width:0.00835165;stroke-linecap:round;stroke-linejoin:round;stroke-miterlimit:4;stroke-dasharray:none;stroke-opacity:1;stop-color:#000000"
       d=""
       id="path14883"
       transform="matrix(0.26458333,0,0,0.26458333,25.215841,40.265166)" />
    <path
       style="fill:none;fill-opacity:1;stroke:#ef3e42;stroke-width:0.2;stroke-linecap:round;stroke-linejoin:miter;stroke-miterlimit:4;stroke-dasharray:none;stroke-opacity:1"
       d="m 36.453301,48.701637 1.063307,1.718245"
       id="path47952-1-9"
       sodipodi:nodetypes="cc" />
    <path
       style="fill:none;fill-opacity:1;stroke:#ef3e42;stroke-width:0.2;stroke-linecap:round;stroke-linejoin:miter;stroke-miterlimit:4;stroke-dasharray:none;stroke-opacity:1"
       d="m 39.43805,45.63619 -0.04497,4.367936"
       id="path47952-1-2-7"
       sodipodi:nodetypes="cc" />
    <path
       style="fill:none;fill-opacity:1;stroke:#ef3e42;stroke-width:0.2;stroke-linecap:round;stroke-linejoin:miter;stroke-miterlimit:4;stroke-dasharray:none;stroke-opacity:1"
       d="m 41.365303,46.596159 -1.026881,3.561115"
       id="path47952-1-2"
       sodipodi:nodetypes="cc" />
    <path
       style="fill:none;fill-opacity:1;stroke:#ef3e42;stroke-width:0.2;stroke-linecap:round;stroke-linejoin:miter;stroke-miterlimit:4;stroke-dasharray:none;stroke-opacity:1"
       d="m 37.360186,46.546585 1.026881,3.561116"
       id="path47952-1-2-9"
       sodipodi:nodetypes="cc" />
    <path
       style="fill:none;fill-opacity:1;stroke:#ef3e42;stroke-width:0.2;stroke-linecap:round;stroke-linejoin:miter;stroke-miterlimit:4;stroke-dasharray:none;stroke-opacity:1"
       d="m 42.334163,48.71631 -1.063307,1.718245"
       id="path47952-1"
       sodipodi:nodetypes="cc" />
    <path
       style="fill:none;stroke:#000000;stroke-width:0.00220971;stroke-linecap:round;stroke-linejoin:round;stroke-miterlimit:4;stroke-dasharray:none;stroke-opacity:0;stop-color:#000000"
       d="m 38.807263,67.462554 c 3.5e-5,-0.06351 -0.0053,-0.65218 -0.01191,-1.308159 l -0.01196,-1.192691 -0.01412,-0.05734 C 38.711303,64.668868 38.469205,64.40631 38.168435,64.25276 l -0.06574,-0.03356 -0.266017,-0.0038 c -0.48492,-0.0069 -0.693635,-0.03351 -0.844822,-0.107806 -0.07811,-0.03839 -0.342918,-0.273202 -0.431299,-0.382453 -0.08986,-0.111077 -0.146452,-0.225135 -0.17124,-0.345111 -0.0077,-0.03745 -0.01103,-0.24136 -0.02305,-1.429308 -0.0077,-0.762094 -0.01481,-1.460607 -0.01578,-1.552251 -0.0017,-0.164077 -0.002,-0.167173 -0.01685,-0.202398 l -0.01509,-0.03577 0.444807,-0.0037 c 0.244644,-0.002 1.45377,-0.005 2.686947,-0.0066 1.233178,-0.0016 2.340427,-0.0046 2.460553,-0.0065 l 0.218413,-0.0035 -0.01479,0.0255 c -0.03421,0.059 -0.03155,-0.02631 -0.04471,1.437436 -0.0067,0.741192 -0.01445,1.442336 -0.01732,1.558097 -0.005,0.200246 -0.0059,0.213131 -0.02041,0.26513 -0.05348,0.192332 -0.173425,0.348216 -0.438989,0.570541 -0.127332,0.1066 -0.171658,0.131697 -0.284324,0.160987 -0.149929,0.03898 -0.285442,0.05089 -0.674506,0.05928 l -0.304019,0.0066 -0.06431,0.03119 c -0.03537,0.01715 -0.09457,0.05127 -0.131546,0.07582 -0.254725,0.169098 -0.432675,0.390336 -0.476652,0.592602 -0.0069,0.03185 -0.01051,0.257523 -0.02045,1.286855 -0.0066,0.686528 -0.01351,1.2752 -0.01529,1.308159 l -0.0032,0.05993 h -0.405768 -0.405771 l 6.1e-5,-0.115469 z"
       id="path1629" />
    <path
       style="fill:none;stroke:#000000;stroke-width:0.00220971;stroke-linecap:round;stroke-linejoin:round;stroke-miterlimit:4;stroke-dasharray:none;stroke-opacity:0;stop-color:#000000"
       d="m 38.807263,67.462554 c 3.5e-5,-0.06351 -0.0053,-0.65218 -0.01191,-1.308159 l -0.01196,-1.192691 -0.01412,-0.05734 C 38.711303,64.668868 38.469205,64.40631 38.168435,64.25276 l -0.06574,-0.03356 -0.266017,-0.0038 c -0.48492,-0.0069 -0.693635,-0.03351 -0.844822,-0.107806 -0.07811,-0.03839 -0.342918,-0.273202 -0.431299,-0.382453 -0.08986,-0.111077 -0.146452,-0.225135 -0.17124,-0.345111 -0.0077,-0.03745 -0.01103,-0.24136 -0.02305,-1.429308 -0.0077,-0.762094 -0.01481,-1.460607 -0.01578,-1.552251 -0.0017,-0.164077 -0.002,-0.167173 -0.01685,-0.202398 l -0.01509,-0.03577 0.444807,-0.0037 c 0.244644,-0.002 1.45377,-0.005 2.686947,-0.0066 1.233178,-0.0016 2.340427,-0.0046 2.460553,-0.0065 l 0.218413,-0.0035 -0.01479,0.0255 c -0.03421,0.059 -0.03155,-0.02631 -0.04471,1.437436 -0.0067,0.741192 -0.01445,1.442336 -0.01732,1.558097 -0.005,0.200246 -0.0059,0.213131 -0.02041,0.26513 -0.05348,0.192332 -0.173425,0.348216 -0.438989,0.570541 -0.127332,0.1066 -0.171658,0.131697 -0.284324,0.160987 -0.149929,0.03898 -0.285442,0.05089 -0.674506,0.05928 l -0.304019,0.0066 -0.06431,0.03119 c -0.03537,0.01715 -0.09457,0.05127 -0.131546,0.07582 -0.254725,0.169098 -0.432675,0.390336 -0.476652,0.592602 -0.0069,0.03185 -0.01051,0.257523 -0.02045,1.286855 -0.0066,0.686528 -0.01351,1.2752 -0.01529,1.308159 l -0.0032,0.05993 h -0.405768 -0.405771 l 6.1e-5,-0.115469 z"
       id="path1668" />
    <path
       style="fill:none;stroke:#000000;stroke-width:0.00220971;stroke-linecap:round;stroke-linejoin:round;stroke-miterlimit:4;stroke-dasharray:none;stroke-opacity:0;stop-color:#000000"
       d="m 38.807263,67.462554 c 3.5e-5,-0.06351 -0.0053,-0.65218 -0.01191,-1.308159 l -0.01196,-1.192691 -0.01412,-0.05734 C 38.711303,64.668868 38.469205,64.40631 38.168435,64.25276 l -0.06574,-0.03356 -0.266017,-0.0038 c -0.48492,-0.0069 -0.693635,-0.03351 -0.844822,-0.107806 -0.07811,-0.03839 -0.342918,-0.273202 -0.431299,-0.382453 -0.08986,-0.111077 -0.146452,-0.225135 -0.17124,-0.345111 -0.0077,-0.03745 -0.01103,-0.24136 -0.02305,-1.429308 -0.0077,-0.762094 -0.01481,-1.460607 -0.01578,-1.552251 -0.0017,-0.164077 -0.002,-0.167173 -0.01685,-0.202398 l -0.01509,-0.03577 0.444807,-0.0037 c 0.244644,-0.002 1.45377,-0.005 2.686947,-0.0066 1.233178,-0.0016 2.340427,-0.0046 2.460553,-0.0065 l 0.218413,-0.0035 -0.01479,0.0255 c -0.03421,0.059 -0.03155,-0.02631 -0.04471,1.437436 -0.0067,0.741192 -0.01445,1.442336 -0.01732,1.558097 -0.005,0.200246 -0.0059,0.213131 -0.02041,0.26513 -0.05348,0.192332 -0.173425,0.348216 -0.438989,0.570541 -0.127332,0.1066 -0.171658,0.131697 -0.284324,0.160987 -0.149929,0.03898 -0.285442,0.05089 -0.674506,0.05928 l -0.304019,0.0066 -0.06431,0.03119 c -0.03537,0.01715 -0.09457,0.05127 -0.131546,0.07582 -0.254725,0.169098 -0.432675,0.390336 -0.476652,0.592602 -0.0069,0.03185 -0.01051,0.257523 -0.02045,1.286855 -0.0066,0.686528 -0.01351,1.2752 -0.01529,1.308159 l -0.0032,0.05993 h -0.405768 -0.405771 l 6.1e-5,-0.115469 z"
       id="path1707" />
    <path
       style="fill:none;stroke:#000000;stroke-width:0.1;stroke-linecap:butt;stroke-linejoin:miter;stroke-miterlimit:4;stroke-dasharray:none;stroke-opacity:1"
       d="m 38.730372,64.973904 c 0.292051,0.232683 0.612763,0.255189 0.970933,0.003"
       id="path1379"
       sodipodi:nodetypes="cc" />
    <ellipse
       style="fill:#ffffff;fill-opacity:1;stroke-width:0.00882825;stroke-linecap:round;stroke-linejoin:round;stop-color:#000000"
       id="path16766"
       cx="38.960762"
       cy="53.314869"
       rx="4.9113278"
       ry="2.7615883" />
    <rect
       style="fill:#ffffff;fill-opacity:1;stroke-width:0.00997648;stroke-linecap:round;stroke-linejoin:round;stop-color:#000000"
       id="rect16872"
       width="5.1428385"
       height="4.3780274"
       x="36.753147"
       y="55.654781" />
    <path
       style="fill:#005a9c;fill-opacity:1;stroke:none;stroke-width:0.00624999;stroke-linecap:round;stroke-linejoin:round;stroke-miterlimit:4;stroke-dasharray:none;stroke-opacity:1;stop-color:#000000"
       d="m 38.526415,59.811242 c 0.0057,-0.235109 0.01593,-0.467645 0.04805,-1.092267 0.01346,-0.261587 0.01823,-0.459174 0.01868,-0.773079 6.62e-4,-0.461193 -0.0059,-0.552966 -0.04896,-0.688067 -0.02299,-0.07209 -0.172648,-0.365609 -0.886489,-1.738658 -0.958114,-1.842902 -1.350251,-2.626104 -1.628291,-3.252125 -0.134288,-0.302358 -0.251904,-0.619333 -0.264848,-0.71377 l -0.0053,-0.03859 0.104046,0.0056 c 0.05722,0.0031 0.207571,0.01468 0.334102,0.02582 0.126531,0.01114 0.296001,0.02456 0.376599,0.02983 0.19132,0.0125 0.58911,0.0055 0.717488,-0.01255 0.157493,-0.0222 0.340019,-0.07111 0.424548,-0.113778 0.01749,-0.0088 0.0339,-0.01396 0.03647,-0.01139 0.0067,0.0067 -0.04026,0.110679 -0.192384,0.426439 -0.170332,0.353566 -0.166159,0.342557 -0.153121,0.403999 0.0102,0.04805 0.01064,0.0486 0.05466,0.06684 0.05579,0.02312 0.0855,0.01766 0.126258,-0.0232 0.01659,-0.01663 0.104523,-0.130665 0.195406,-0.253406 0.214302,-0.289422 0.343646,-0.457705 0.438547,-0.570571 0.07822,-0.09302 0.216586,-0.235504 0.22871,-0.235504 0.01128,0 0.0075,0.1044 -0.0062,0.170544 -0.02142,0.103704 -0.05837,0.196149 -0.161507,0.404097 -0.112675,0.227176 -0.136783,0.30089 -0.128952,0.394292 0.0083,0.09865 0.05224,0.173256 0.122831,0.208434 0.07549,0.03762 0.16089,0.02458 0.256688,-0.03919 0.165663,-0.11027 0.432702,-0.460211 0.650866,-0.852927 0.03284,-0.05912 0.06222,-0.109989 0.06528,-0.113049 0.0031,-0.0031 0.0331,0.0037 0.06676,0.01509 0.0371,0.01252 0.08956,0.02249 0.133236,0.02532 l 0.07204,0.0047 -0.05155,0.108484 c -0.169828,0.357406 -0.223442,0.605579 -0.161456,0.747354 0.02513,0.05747 0.07969,0.105426 0.139839,0.122913 0.117027,0.03402 0.367556,-0.02852 0.470416,-0.11744 l 0.03055,-0.02641 0.04974,0.04511 c 0.107073,0.09711 0.2478,0.140685 0.425899,0.131871 0.313656,-0.01552 0.671316,-0.17149 1.327096,-0.578718 0.457314,-0.283983 0.479401,-0.296801 0.482076,-0.279765 0.0079,0.05032 -0.08972,0.390119 -0.203564,0.708546 -0.174599,0.48838 -0.359352,0.946266 -0.95238,2.360354 -0.321624,0.766918 -0.4672,1.118855 -0.624168,1.508952 -0.205092,0.509694 -0.380741,0.981172 -0.404219,1.085004 -0.05652,0.249961 -0.0641,0.765188 -0.02982,2.027984 0.0043,0.15689 0.0078,0.384783 0.0079,0.50643 l 2.06e-4,0.221175 h -0.75373 -0.753729 z"
       id="path15478" />
    <path
       style="fill:#ffffff;fill-opacity:1;stroke-width:0.00334066;stroke-linecap:round;stroke-linejoin:round;stop-color:#000000"
       d="m 56.259183,99.136974 c -0.388622,-0.09882 -0.893649,-0.353825 -1.037645,-0.523933 -0.0691,-0.08163 -0.198553,-0.345788 -0.287671,-0.587013 -0.198122,-0.536285 -1.199919,-1.569704 -1.856664,-1.915271 -0.407089,-0.214203 -0.557908,-0.237304 -1.912387,-0.292918 -1.732822,-0.07115 -2.535588,-0.21866 -3.025147,-0.555883 -0.611294,-0.421079 -1.533942,-1.39464 -1.791444,-1.890299 l -0.247031,-0.475504 -0.06653,-3.844893 c -0.03659,-2.114691 -0.07787,-4.889014 -0.09172,-6.165162 l -0.02519,-2.32027 2.740039,2.3e-5 c 1.507022,1.2e-5 6.414188,-0.02643 10.904815,-0.05877 l 8.164777,-0.05879 -0.09934,0.185618 c -0.06693,0.125053 -0.102525,1.103178 -0.109103,2.997758 -0.0054,1.546677 -0.03581,4.263919 -0.06764,6.038315 l -0.05787,3.226175 -0.25231,0.486136 c -0.300558,0.579098 -1.486432,1.763456 -2.028422,2.025828 -0.55542,0.268875 -1.175803,0.361337 -2.834976,0.422527 l -1.494478,0.05511 -0.64436,0.430975 c -0.747388,0.499883 -1.274547,1.063982 -1.539522,1.647399 -0.102942,0.226654 -0.216196,0.47176 -0.251678,0.54468 -0.09805,0.201517 -0.977284,0.603953 -1.425581,0.65251 -0.218761,0.0237 -0.517072,0.01274 -0.662913,-0.02435 z"
       id="path15000"
       transform="matrix(0.26458333,0,0,0.26458333,24.201974,38.853738)" />
    <rect
       style="fill:#bfc0bf;fill-opacity:1;stroke-width:0.2;stroke-linecap:round;stroke-linejoin:round;stroke-miterlimit:4;stroke-dasharray:none;stop-color:#000000"
       id="rect21510"
       width="2.0638218"
       height="3.6131499"
       x="42.093792"
       y="60.50082"
       transform="rotate(-0.01209578)" />
    <path
       style="fill:#bfc0bf;stroke:#000000;stroke-width:0.2;stroke-linecap:butt;stroke-linejoin:miter;stroke-miterlimit:4;stroke-dasharray:none;stroke-opacity:1;fill-opacity:1"
       d="m 42.722232,60.72595 -7.047863,1.063312"
       id="path20990-3" />
    <path
       style="fill:#bfc0bf;stroke:#000000;stroke-width:0.2;stroke-linecap:butt;stroke-linejoin:miter;stroke-miterlimit:4;stroke-dasharray:none;stroke-opacity:1;fill-opacity:1"
       d="m 42.90932,61.673086 -7.047863,1.063312"
       id="path20990-3-1" />
    <rect
       style="fill:#bfc0bf;fill-opacity:1;stroke-width:0.2;stroke-linecap:round;stroke-linejoin:round;stroke-miterlimit:4;stroke-dasharray:none;stop-color:#000000"
       id="rect25949"
       width="0.97978514"
       height="0.78548175"
       x="9.8732672"
       y="72.000282"
       transform="rotate(-21.267498)" />
    <path
       id="path20990-3-1-4"
       style="fill:#bfc0bf;stroke:#000000;stroke-width:0.75590552;stroke-linecap:butt;stroke-linejoin:miter;stroke-miterlimit:4;stroke-dasharray:none;stroke-opacity:1;fill-opacity:1"
       d="m 49.753976,92.917335 -5.708738,0.861278 m 26.637593,-4.018817 -20.928855,3.157539"
       transform="matrix(0.26458333,0,0,0.26458333,24.201974,38.853738)"
       clip-path="url(#clipPath29205)" />
    <g
       id="g26775"
       transform="translate(0.16941297,0.59030059)">
      <g
         id="g18367">
        <path
           style="fill:#740000;fill-opacity:1;stroke:#000000;stroke-width:0.1;stroke-linecap:butt;stroke-linejoin:miter;stroke-miterlimit:4;stroke-dasharray:none;stroke-opacity:1"
           d="m 36.066418,40.387218 c -1.96096,0.789899 -4.035708,1.55731 -5.779895,2.359549 -0.418595,0.199672 -1.347651,1.220483 -1.583144,1.53381 -0.616788,0.66045 -1.003691,1.101062 -1.876886,2.706258 -0.591388,1.074102 -0.920014,2.316373 -1.24174,3.563059 -0.357411,1.354711 -0.385736,2.765437 -0.2259,4.20819 0.161218,1.468683 0.519362,2.929328 1.219857,4.375999 0.635462,1.434609 1.524717,2.573012 2.488821,3.624182 1.131139,1.116644 2.315676,2.141136 3.849788,2.855109 1.063304,0.597455 2.222839,0.874141 3.383052,1.148569 0.742196,0.172957 1.501193,0.278709 2.287429,0.275507 l -0.02684,-2.653846 c -0.04433,-0.33139 -0.440886,-0.62097 -0.648886,-0.703136 -0.501115,-0.004 -1.024341,0.005 -1.213024,-0.183295 -0.249092,-0.201597 -0.51831,-0.432482 -0.542665,-0.785185 l -0.02924,-3.045152 c -0.03627,-0.195996 -0.245562,-0.0736 -0.28095,-0.152228 l -0.302298,-0.550194 c -0.122593,-0.25626 -0.105609,-0.501238 -0.109953,-0.734755 -0.02351,-0.367345 -0.01798,-0.737457 -0.094,-1.0998 -0.06937,-0.294687 -0.118016,-0.635095 -0.280403,-0.90516 -0.195531,-0.407161 -0.382977,-0.716137 -0.754623,-1.091259 -0.375507,-0.500002 -0.710154,-1.034439 -1.008334,-1.442394 -0.260265,-0.388457 -0.431712,-0.747849 -0.632365,-1.32303 -0.151052,-0.519067 -0.27573,-1.038134 -0.31833,-1.557201 -0.04345,-0.360989 -0.05602,-0.719172 -0.01387,-1.07238 0.05397,-0.393474 0.07171,-0.426491 0.0515,-0.560016 -0.03263,-0.300603 -0.393803,-0.27809 -0.613995,-0.28876 -0.143792,-0.0076 -0.300835,-7.7e-4 -0.487355,0.03823 -0.278425,0.07736 -0.550506,0.292846 -0.616802,0.385912 -0.201242,0.175549 -0.364201,0.529116 -0.381902,0.674529 -0.03421,0.230413 -0.06351,0.465748 -0.05164,0.742241 0.01275,1.591737 0.06271,4.672554 0.0032,4.669973 -0.548433,0.03354 -1.061428,0.01392 -1.57156,-0.01 -0.512407,-0.10394 -0.36725,-0.751272 0.10327,-0.755147 l 0.671245,0.01937 c 0.03132,-8.45e-4 0.03012,-3.085144 0.04518,-4.627716 -9e-5,-0.255143 0.04044,-0.428916 0.12396,-0.589047 0.108368,-0.251405 0.240563,-0.48466 0.483956,-0.697801 0.188512,-0.186712 0.34106,-0.305058 0.680985,-0.488208 0.254347,-0.120988 0.505655,-0.180079 0.798868,-0.176696 0.109683,0.0129 0.21565,0.01882 0.294581,-0.02594 0.131075,-0.09352 1.114273,-2.362408 1.26103,-2.458209 1.258051,-0.733646 2.722083,-1.608879 4.086047,-2.441089 1.801082,-1.154331 0.146103,-3.247652 -1.1461,-2.762852 z"
           id="path1023"
           sodipodi:nodetypes="cccccccccccccccccccccccccccccccccccccccccccccc" />
      </g>
      <g
         id="g18370"
         transform="translate(-12.770158,12.63586)">
        <path
           style="fill:#bfc0bf;fill-opacity:1;stroke:#000000;stroke-width:0.1;stroke-linecap:butt;stroke-linejoin:miter;stroke-miterlimit:4;stroke-dasharray:none;stroke-opacity:1"
           d="m 54.796593,27.754364 c 1.96096,0.789899 4.035708,1.55731 5.779895,2.359549 0.418595,0.199672 1.347651,1.220483 1.583144,1.53381 0.616788,0.66045 1.003691,1.101062 1.876886,2.706258 0.591388,1.074102 0.920014,2.316373 1.24174,3.563059 0.357411,1.354711 0.385736,2.765437 0.2259,4.20819 -0.161218,1.468683 -0.519362,2.929328 -1.219857,4.375999 -0.635462,1.434609 -1.524717,2.573012 -2.488821,3.624182 -1.131139,1.116644 -2.315676,2.141136 -3.849788,2.855109 -1.063304,0.597455 -2.222839,0.874141 -3.383052,1.148569 -0.742196,0.172957 -1.501193,0.278709 -2.287429,0.275507 l 0.02684,-2.653846 c 0.04433,-0.33139 0.440886,-0.62097 0.648886,-0.703136 0.501115,-0.004 1.024341,0.005 1.213024,-0.183295 0.249092,-0.201597 0.51831,-0.432482 0.542665,-0.785185 l 0.02924,-3.045152 c 0.03627,-0.195996 0.23316,-0.09117 0.268548,-0.169798 0.111501,-0.18746 0.191885,-0.34647 0.281627,-0.52849 0.106057,-0.293467 0.118011,-0.464031 0.143026,-0.738889 0.02351,-0.367345 0.01798,-0.737457 0.094,-1.0998 0.06937,-0.294687 0.118016,-0.635095 0.280403,-0.90516 0.195531,-0.407161 0.382977,-0.716137 0.754623,-1.091259 0.375507,-0.500002 0.710154,-1.034439 1.008334,-1.442394 0.260265,-0.388457 0.431712,-0.747849 0.632365,-1.32303 0.151052,-0.519067 0.27573,-1.038134 0.31833,-1.557201 0.04345,-0.360989 0.05602,-0.719172 0.01387,-1.07238 -0.08555,-0.387834 -0.115811,-0.65721 -0.02519,-0.757336 0.08963,-0.08282 0.367494,-0.08077 0.587686,-0.09144 0.143792,-0.0076 0.300835,-7.7e-4 0.487355,0.03823 0.278425,0.07736 0.550506,0.292846 0.616802,0.385912 0.201242,0.175549 0.364201,0.529116 0.381902,0.674529 0.03421,0.230413 0.06351,0.465748 0.05164,0.742241 -0.01275,1.591737 -0.06271,4.672554 -0.0032,4.669973 0.548433,0.03354 1.061428,0.01392 1.57156,-0.01 0.512407,-0.10394 0.36725,-0.751272 -0.10327,-0.755147 l -0.671245,0.01937 c -0.03132,-8.45e-4 -0.03012,-3.085144 -0.04518,-4.627716 9e-5,-0.255143 -0.04044,-0.428916 -0.12396,-0.589047 -0.108368,-0.251405 -0.240563,-0.48466 -0.483956,-0.697801 -0.188512,-0.186712 -0.34106,-0.305058 -0.680985,-0.488208 -0.254347,-0.120988 -0.505655,-0.180079 -0.798868,-0.176696 -0.109683,0.0129 -0.21565,0.01882 -0.294581,-0.02594 -0.131075,-0.09352 -1.114273,-2.362408 -1.26103,-2.458209 -1.258051,-0.733646 -2.722083,-1.608879 -4.086047,-2.441089 -1.801082,-1.154331 -0.146103,-3.247652 1.1461,-2.762852 z"
           id="path1023-0"
           sodipodi:nodetypes="cccccccccccccccccccccccccccccccccccccccccccccc" />
      </g>
      <path
         style="fill:none;stroke:#000000;stroke-width:0.1;stroke-linecap:round;stroke-linejoin:miter;stroke-miterlimit:4;stroke-dasharray:none;stroke-opacity:1"
         d="m 32.391672,49.25192 c 1.317951,-7.593693 11.978501,-7.702899 13.287041,-0.01627"
         id="path24426"
         sodipodi:nodetypes="cc" />
      <path
         style="fill:none;stroke:#000000;stroke-width:0.1;stroke-linecap:round;stroke-linejoin:miter;stroke-miterlimit:4;stroke-dasharray:none;stroke-opacity:1"
         d="m 42.234254,59.500044 -6.38806,0.01455"
         id="path25865" />
    </g>
    <path
       style="fill:#bfc0bf;stroke:#000000;stroke-width:0.2;stroke-linecap:butt;stroke-linejoin:miter;stroke-miterlimit:4;stroke-dasharray:none;stroke-opacity:1;fill-opacity:1"
       d="m 42.533622,59.8022 -7.047863,1.063312"
       id="path20990" />
    <path
       style="fill:#005a9c;fill-opacity:1;stroke:none;stroke-width:0.00624999;stroke-linecap:round;stroke-linejoin:round;stroke-miterlimit:4;stroke-dasharray:none;stroke-opacity:1;stop-color:#000000"
       d="m 35.896966,59.775144 c -0.08259,-0.151151 -0.159726,-0.301819 -0.171406,-0.334816 -0.04084,-0.115374 -0.05438,-0.207126 -0.06315,-0.42783 -0.03916,-0.986055 -0.04689,-1.066488 -0.144438,-1.502016 -0.05788,-0.258415 -0.08592,-0.363226 -0.129009,-0.48218 -0.02826,-0.07802 -0.195418,-0.413015 -0.286827,-0.574821 -0.137854,-0.244021 -0.311752,-0.478007 -0.506807,-0.68193 -0.112928,-0.118061 -0.242986,-0.297658 -0.684259,-0.944886 -0.137211,-0.201251 -0.283645,-0.413331 -0.325409,-0.471289 -0.265995,-0.369133 -0.477351,-0.787088 -0.663507,-1.312081 -0.08156,-0.230004 -0.206456,-0.714798 -0.268522,-1.042256 -0.03815,-0.201301 -0.05559,-0.324887 -0.08281,-0.587044 -0.05684,-0.547325 -0.05593,-0.785226 0.0047,-1.21543 0.01601,-0.113688 0.03232,-0.245773 0.03624,-0.293522 0.0039,-0.04775 0.02247,-0.163091 0.04122,-0.256315 0.221003,-1.098943 0.641416,-2.061966 1.261533,-2.889746 0.314231,-0.41946 0.714421,-0.830346 1.133579,-1.163876 0.8762,-0.697205 1.955065,-1.167004 3.099199,-1.349566 0.395002,-0.06303 0.651686,-0.08222 1.099693,-0.08222 0.389345,0 0.541072,0.0087 0.862538,0.04937 1.34534,0.170281 2.558396,0.712625 3.539997,1.582693 0.143686,0.12736 0.425831,0.411388 0.548679,0.552342 0.703389,0.807057 1.194329,1.772889 1.474085,2.899988 0.05211,0.209946 0.11597,0.533986 0.131171,0.665592 0.01419,0.122858 0.02818,0.20852 0.05784,0.354222 0.0701,0.344339 0.03809,1.070275 -0.07461,1.692165 -0.06278,0.346437 -0.194157,0.856972 -0.285945,1.111187 -0.191823,0.531271 -0.374443,0.891429 -0.647445,1.276878 -0.05708,0.08058 -0.214791,0.309217 -0.350476,0.508068 -0.438174,0.642159 -0.549388,0.794838 -0.679664,0.933068 -0.16948,0.179829 -0.328543,0.389119 -0.448315,0.589881 -0.06997,0.117279 -0.265295,0.489772 -0.301481,0.574928 -0.05819,0.136934 -0.105129,0.305457 -0.17592,0.631565 -0.0637,0.293439 -0.0826,0.438056 -0.09898,0.757498 -0.0049,0.0955 -0.01263,0.246187 -0.01719,0.334863 -0.01727,0.335998 -0.04839,0.551595 -0.107558,0.745041 -0.0343,0.112154 -0.134268,0.321334 -0.25083,0.524858 l -0.04777,0.08341 -0.402378,0.0055 c -0.221308,0.003 -0.700564,0.0055 -1.065015,0.0055 h -0.662636 l -0.0047,-0.142627 c -0.01284,-0.389532 -0.03056,-1.419124 -0.03037,-1.764609 2.91e-4,-0.537005 0.01492,-0.728881 0.0672,-0.882024 0.149611,-0.438261 0.428981,-1.131828 1.102893,-2.738051 0.472233,-1.125537 0.680622,-1.644811 0.847271,-2.111279 0.238905,-0.668714 0.279896,-0.953153 0.149975,-1.040663 -0.01545,-0.01041 -0.04002,-0.01892 -0.05459,-0.01892 -0.05219,0 -0.206899,0.08474 -0.566374,0.310236 -0.438006,0.274752 -0.780519,0.461149 -0.988054,0.537702 -0.246393,0.09089 -0.434965,0.108065 -0.557715,0.0508 -0.04916,-0.02293 -0.115672,-0.09 -0.142123,-0.143312 -0.01944,-0.03918 -0.02048,-0.04683 -0.01355,-0.09922 0.01,-0.07561 0.05971,-0.22368 0.09446,-0.281398 0.08593,-0.142707 0.321196,-0.363165 0.462503,-0.4334 0.05587,-0.02777 0.164079,-0.04997 0.208441,-0.04278 l 0.02881,0.0047 -0.0051,0.06695 c -0.0028,0.03682 -0.01257,0.09485 -0.02167,0.128958 -0.02218,0.08319 -0.02126,0.09637 0.01005,0.143217 l 0.02687,0.04021 0.05788,-0.0045 c 0.05233,-0.0041 0.06,-0.007 0.08006,-0.03079 0.07111,-0.08435 0.102974,-0.305479 0.05847,-0.405846 -0.06656,-0.150111 -0.179165,-0.205334 -0.343951,-0.168673 -0.09082,0.02021 -0.304708,0.128321 -0.408418,0.206445 -0.100734,0.07588 -0.207064,0.186364 -0.268047,0.278516 -0.171378,0.258971 -0.211375,0.361661 -0.203391,0.522206 0.0031,0.06148 0.0012,0.09074 -0.0068,0.106444 -0.02399,0.04711 -0.1572,0.107433 -0.265285,0.120136 -0.03965,0.0047 -0.04824,0.0032 -0.05774,-0.0098 -0.03281,-0.04487 0.0077,-0.228595 0.09703,-0.440228 0.05691,-0.134805 0.190549,-0.388559 0.227314,-0.43163 0.04474,-0.05241 0.06561,-0.08699 0.07814,-0.129441 0.0092,-0.03114 0.0082,-0.03838 -0.01115,-0.08061 l -0.02124,-0.04639 h -0.05888 c -0.03238,0 -0.06584,0.0037 -0.07434,0.0083 -0.0085,0.0046 -0.03077,0.03195 -0.04948,0.06087 -0.01871,0.02893 -0.04406,0.05742 -0.05634,0.06332 -0.0368,0.01768 -0.163889,0.02023 -0.225193,0.0045 -0.02931,-0.0075 -0.0564,-0.01676 -0.0602,-0.02056 -0.0038,-0.0038 -10e-4,-0.02664 0.0061,-0.05077 0.02347,-0.07902 0.01364,-0.128057 -0.03364,-0.167827 -0.0309,-0.02599 -0.08727,-0.02971 -0.131587,-0.0087 -0.03467,0.01645 -0.09201,0.07783 -0.107629,0.115203 -0.01371,0.03282 -0.0155,0.108767 -0.0033,0.140811 0.0074,0.01944 0.0026,0.03326 -0.03835,0.110092 -0.176271,0.330875 -0.437428,0.697854 -0.580976,0.816389 -0.05978,0.04936 -0.08226,0.06009 -0.09239,0.04408 -0.02176,-0.0344 4.9e-5,-0.09657 0.115779,-0.330052 0.127056,-0.256332 0.164466,-0.367847 0.182564,-0.544203 0.02289,-0.223046 -0.03508,-0.340194 -0.168519,-0.340569 -0.05326,-1.5e-4 -0.10246,0.02003 -0.170199,0.0698 -0.0469,0.03446 -0.202317,0.193769 -0.272714,0.279538 -0.02899,0.03532 -0.05431,0.06263 -0.05626,0.06067 -0.002,-0.002 0.01125,-0.04388 0.02934,-0.09316 0.01809,-0.04929 0.0412,-0.126821 0.05135,-0.172296 0.01725,-0.07725 0.01761,-0.08471 0.0055,-0.113507 -0.01444,-0.03425 -0.05603,-0.06418 -0.08924,-0.06423 -0.04603,-6.6e-5 -0.07356,0.01738 -0.10839,0.06867 -0.12884,0.189725 -0.354779,0.286268 -0.750673,0.320762 -0.160536,0.01399 -0.529543,0.0044 -0.81442,-0.02125 -0.399317,-0.0359 -0.516775,-0.04205 -0.592348,-0.03104 -0.111142,0.0162 -0.163205,0.06077 -0.176568,0.151172 -0.01804,0.122037 0.09258,0.451237 0.326227,0.970871 0.288669,0.641989 0.638704,1.3386 1.649939,3.283577 0.727089,1.398461 0.820124,1.58401 0.835038,1.665407 0.03351,0.182915 0.03677,0.653225 0.0085,1.223374 -0.0071,0.143247 -0.02035,0.411138 -0.02942,0.595313 -0.0091,0.184175 -0.01889,0.446899 -0.02183,0.583832 l -0.0053,0.248969 -0.07438,0.0053 c -0.04091,0.0029 -0.550986,0.0052 -1.133508,0.0052 l -1.05913,-9.7e-5 z m 5.433665,-9.254942 c 0.0093,-0.0061 0.260484,-0.404639 0.558226,-0.885683 0.484825,-0.7833 0.541644,-0.878638 0.544159,-0.913058 0.0034,-0.04601 -0.0073,-0.06862 -0.04261,-0.09014 -0.03971,-0.02421 -0.09066,-0.02142 -0.120857,0.0066 -0.01347,0.01251 -0.265446,0.411551 -0.559941,0.886768 l -0.535445,0.86403 -3.7e-4,0.04688 c -2.91e-4,0.03864 0.0032,0.05066 0.01985,0.06839 0.03466,0.03689 0.09458,0.04398 0.136979,0.0162 z m -3.752868,-0.01561 c 0.02775,-0.01818 0.04719,-0.0657 0.04081,-0.09973 -0.0037,-0.01995 -0.683788,-1.130243 -1.058877,-1.728807 -0.0175,-0.02792 -0.04195,-0.05676 -0.05435,-0.06408 -0.02684,-0.01585 -0.06999,-0.01705 -0.09829,-0.0027 -0.02868,0.01451 -0.05813,0.06141 -0.05813,0.09258 0,0.03207 -0.02698,-0.01288 0.593105,0.987961 0.386356,0.62359 0.500481,0.801876 0.523106,0.8172 0.0329,0.02228 0.07637,0.02136 0.112627,-0.0024 z m 2.831487,-0.274118 c 0.021,-0.0212 0.07675,-0.208602 0.540564,-1.817329 0.290257,-1.006743 0.517145,-1.807882 0.517145,-1.826039 0,-0.04039 -0.03992,-0.08445 -0.084,-0.09272 -0.03575,-0.0067 -0.08326,0.01147 -0.100881,0.0386 -0.0069,0.01061 -0.245507,0.826687 -0.530251,1.8135 -0.405749,1.406169 -0.516874,1.801087 -0.513818,1.826024 0.004,0.03264 0.02966,0.06771 0.059,0.08062 0.03166,0.01394 0.08707,0.0028 0.112245,-0.02266 z m -1.950308,-0.05038 c 0.01597,-0.01597 0.0258,-0.03558 0.02841,-0.05671 0.0032,-0.02563 -0.102937,-0.402902 -0.513707,-1.826506 -0.284736,-0.986813 -0.523365,-1.802888 -0.530285,-1.8135 -0.0177,-0.02714 -0.06519,-0.0453 -0.100928,-0.0386 -0.04395,0.0082 -0.084,0.05235 -0.084,0.09249 0,0.01785 0.229797,0.828991 0.517318,1.826038 0.389233,1.349755 0.521788,1.798756 0.535368,1.813434 0.02532,0.02737 0.0456,0.03455 0.08727,0.03092 0.0264,-0.0023 0.04273,-0.0097 0.06056,-0.02756 z m 0.990569,-0.09243 c 0.01137,-0.0078 0.02683,-0.02697 0.03436,-0.0426 0.01246,-0.02585 0.0157,-0.226491 0.03603,-2.228914 0.02457,-2.420729 0.02703,-2.228779 -0.02905,-2.266804 -0.03264,-0.02213 -0.07631,-0.02143 -0.111764,0.0018 -0.04689,0.03072 -0.04253,-0.108287 -0.06553,2.089041 -0.01169,1.116062 -0.02122,2.113564 -0.02119,2.216672 l 5e-5,0.187467 0.02136,0.02538 c 0.03506,0.04167 0.09051,0.049 0.13574,0.01795 z"
       id="path15517" />
    <path
       style="fill:#bfc0bf;fill-opacity:1;stroke-width:0.00167033;stroke-linecap:round;stroke-linejoin:round;stop-color:#000000"
       d="m 53.740115,108.51687 c -3.041836,-0.10174 -5.544529,-0.52594 -10.407728,-1.76408 -3.132012,-0.79739 -5.602724,-1.61726 -7.53723,-2.50113 -0.623295,-0.28478 -3.393228,-1.68506 -4.262614,-2.15487 C 27.840395,100.10156 23.994654,97.139576 19.959732,93.183415 17.811896,91.077506 15.196625,87.903546 13.370703,85.186807 11.783242,82.824862 10.767042,80.943441 9.214993,77.492809 6.6113258,71.704136 5.1581605,65.063701 4.8988224,57.769484 4.7632289,53.955743 5.1269711,50.266815 5.9715787,46.890018 c 1.5433368,-6.170361 2.7715482,-9.87177 4.2614473,-12.842544 0.313583,-0.625266 1.13365,-2.121536 1.765915,-3.222038 1.855555,-3.22972 3.148035,-5.039461 5.207823,-7.292038 0.34451,-0.376756 0.739247,-0.824222 0.877193,-0.994369 1.207027,-1.488792 3.392532,-3.722773 4.565557,-4.666824 0.608965,-0.490095 0.898442,-0.659864 1.879268,-1.102129 3.434906,-1.548834 6.630498,-2.863227 14.339994,-5.898244 1.89593,-0.746375 4.188799,-1.6536127 5.095265,-2.0160826 2.152565,-0.860749 2.140626,-0.8574177 3.05856,-0.85346 0.60046,0.00259 0.789269,0.019722 1.069414,0.097042 2.097399,0.578883 3.796736,2.2913786 4.35078,4.3844746 0.13919,0.525828 0.187083,1.38131 0.105753,1.888926 -0.104617,0.652972 -0.406308,1.423625 -0.766124,1.957015 -0.424163,0.628783 -1.131057,1.316631 -1.8554,1.805414 -0.857526,0.578652 -9.452683,5.738468 -13.77619,8.270076 -1.008732,0.590657 -1.890735,1.125805 -1.960008,1.189217 -0.260966,0.238887 -0.841717,1.35214 -2.215767,4.247448 -1.127328,2.375431 -2.289138,4.717567 -2.418057,4.874652 -0.13883,0.169161 -0.358076,0.209661 -0.963372,0.177956 -1.232719,-0.06457 -2.509095,0.257019 -3.668116,0.92419 -0.932763,0.536929 -1.322845,0.829338 -2.174629,1.630119 -0.845138,0.794533 -1.298199,1.440881 -1.839329,2.624034 -0.34403,0.752204 -0.443751,1.157071 -0.495277,2.010835 -0.02274,0.376756 -0.06379,4.384062 -0.09122,8.905126 -0.02743,4.521064 -0.05959,8.337324 -0.07146,8.480575 l -0.02158,0.260458 -1.266125,-0.03135 c -0.869444,-0.02153 -1.333722,-0.01613 -1.481882,0.01725 -0.539618,0.121564 -1.027325,0.513271 -1.253451,1.006725 -0.163248,0.356236 -0.18887,0.864871 -0.06067,1.204406 0.16646,0.440873 0.509008,0.75557 1.003215,0.921657 0.214984,0.07225 0.479902,0.09736 1.489281,0.14116 1.275651,0.05535 4.715594,0.03818 4.863352,-0.02428 0.0444,-0.01877 0.101771,-0.0861 0.127492,-0.149633 0.08781,-0.216865 0.114107,-3.266599 0.07131,-8.269331 -0.02339,-2.734514 -0.04614,-6.354017 -0.05054,-8.043339 -0.0077,-2.957972 -0.0044,-3.0955 0.08899,-3.720962 0.180542,-1.20882 0.645714,-2.085904 1.590699,-2.999276 0.839493,-0.811409 1.693503,-1.247508 2.682634,-1.369882 0.516388,-0.06389 2.042893,-0.03328 2.413472,0.0484 0.325578,0.07176 0.635074,0.232905 0.745709,0.388278 0.20883,0.293275 0.225296,0.676817 0.07378,1.718408 -0.169861,1.167666 -0.214807,1.875674 -0.187399,2.95193 0.05813,2.282717 0.406872,4.463468 1.141388,7.137359 0.588654,2.142905 1.646937,4.394483 2.897701,6.165087 0.240387,0.340295 0.782538,1.125847 1.20478,1.74567 1.690773,2.481936 2.148948,3.11207 2.667128,3.668117 1.006452,1.080003 1.618652,1.991517 2.45636,3.657315 0.448593,0.892033 0.62291,1.397031 0.888522,2.574063 0.33749,1.495549 0.412814,2.112243 0.485812,3.977476 0.109432,2.796169 0.160079,3.195817 0.487692,3.84834 0.376531,0.749949 1.16785,2.150882 1.264933,2.239407 0.08459,0.07713 0.165502,0.100427 0.360701,0.103843 0.342921,0.006 0.463799,0.04633 0.522296,0.17424 0.03508,0.07671 0.06504,1.809442 0.101995,5.898053 0.05694,6.300498 0.04977,6.145438 0.310992,6.721554 0.274904,0.606291 0.743818,1.158691 1.566886,1.845867 0.599639,0.500631 0.646902,0.530537 1.055143,0.667579 0.621956,0.208782 1.836483,0.330166 3.32382,0.332194 0.582824,7.96e-4 0.631986,0.0077 0.83969,0.117376 0.39422,0.208225 0.83839,0.539341 1.162602,0.866678 0.382077,0.385762 0.570781,0.644259 0.740721,1.014654 l 0.127611,0.278136 0.02882,2.253904 c 0.08609,6.73317 0.09014,7.75627 0.03072,7.74891 -0.03184,-0.004 -0.485473,-0.0215 -1.008069,-0.0389 z"
       id="path7102"
       transform="matrix(0.26458333,0,0,0.26458333,24.201974,38.853738)" />
  </g>
</svg>
